<?xml version="1.0" encoding="UTF-8"?>
<!DOCTYPE svg PUBLIC "-//W3C//DTD SVG 1.1//EN" "http://www.w3.org/Graphics/SVG/1.1/DTD/svg11.dtd">
<!-- Creator: CorelDRAW -->
<svg xmlns="http://www.w3.org/2000/svg" xml:space="preserve" width="1500px" height="300px" style="shape-rendering:geometricPrecision; text-rendering:geometricPrecision; image-rendering:optimizeQuality; fill-rule:evenodd; clip-rule:evenodd"
viewBox="0 0 1500 385.441"
 xmlns:xlink="http://www.w3.org/1999/xlink">
 <defs>
  <style type="text/css">
   <![CDATA[
    .str0 {stroke:#1F1A17;stroke-width:0.99666}
    .fil3 {fill:none}
    .fil2 {fill:#72706F}
    .fil1 {fill:#EB891B}
    .fil0 {fill:white}
    .fil5 {fill:#666666;fill-rule:nonzero}
    .fil4 {fill:#999999;fill-rule:nonzero}
   ]]>
  </style>
 </defs>
 <g id="Layer_x0020_1">
  <metadata id="CorelCorpID_0Corel-Layer"/>
  <polygon class="fil0 str0" points="28.1877,200.667 119.274,42.7099 301.448,42.7099 393.016,200.667 301.933,358.615 119.274,358.615 "/>
  <path class="fil0" d="M505.61 306.211l-46.8927 0.0536261 -0.232816 -198.185c-0.0392386,-33.1645 10.1876,-59.3484 30.6924,-78.5347 20.5035,-19.1864 50.1888,-28.8011 89.0703,-28.8482 18.2067,-0.0235432 34.5234,2.47596 48.941,7.49196 14.4123,5.00423 26.6535,12.1365 36.7273,21.3563 10.0621,9.242 17.6914,20.4381 22.8722,33.6209 5.17949,13.1816 7.77971,28.0621 7.79933,44.6404l0.235432 198.188 -46.8954 0.0536261 -0.248511 -210.824c-0.0156954,-13.5962 -2.1385,-25.0107 -6.36319,-34.2448 -4.226,-9.242 -9.74033,-16.5692 -16.5417,-22.005 -6.80005,-5.42931 -14.483,-9.2263 -23.0514,-11.3975 -8.56579,-2.15943 -17.0636,-3.10116 -25.4894,-2.81864 -8.42845,-0.257667 -16.8569,0.770384 -25.2775,3.08939 -8.42583,2.319 -16.0381,6.20624 -22.8225,11.6486 -6.7922,5.45155 -12.2908,12.7225 -16.4881,21.8337 -4.20638,9.11643 -6.2991,20.4629 -6.28341,34.0578l0.248511 210.824zm713.721 -181.485l-47.3008 0.0536261 0.207965 181.463 -45.2617 0.0536261 -0.209273 -181.462 -47.7076 0.0536261 -0.0313909 -23.6452 47.7089 -0.056242 -0.117716 -101.13 45.2643 -0.054934 0.12164 101.13 47.3021 -0.0536261 0.0235432 23.6478zm-141.112 -23.483l0.056242 48.9279c-1.34196,24.4718 -12.0554,42.1645 -32.1586,53.0584 21.763,11.6552 32.6635,30.5368 32.6858,56.637l0.056242 46.0805 -39.1431 0.0470863 -0.0614738 -54.233c-0.00915567,-6.52407 -1.44136,-11.8906 -4.29793,-16.1101 -2.86573,-4.20507 -6.40112,-7.5979 -10.6206,-10.1772 -4.21946,-2.57667 -8.90978,-4.47712 -14.0788,-5.6909 -5.17165,-1.22294 -10.0595,-2.08619 -14.6779,-2.63945 -4.62361,0.559804 -9.38064,1.43875 -14.2724,2.67084 -4.88782,1.22948 -9.37541,3.34705 -13.4471,6.33049 -4.07166,3.00437 -7.40432,6.95308 -9.97445,11.8435 -2.58321,4.89567 -3.86239,11.1581 -3.85323,18.7639l0.0536261 49.3412 -43.6268 0.0470863 -0.054934 -46.0792c-0.0313909,-26.1002 10.8155,-45.0041 32.555,-56.7168 -20.1268,-10.8455 -30.8886,-28.5042 -32.2751,-52.9773l-0.0601658 -48.9292 39.1497 -0.0483943 0.0614738 52.1913c0.00915567,6.52538 1.44006,11.9704 4.29793,16.3076 2.86703,4.35025 6.4626,7.81764 10.822,10.3943 4.34633,2.57667 9.17398,4.46797 14.483,5.6909 5.2959,1.21378 10.3943,1.95539 15.2926,2.2196l1.22294 0c4.89044,-0.279902 9.78611,-1.02805 14.6765,-2.25753 4.89175,-1.23209 9.30478,-3.13124 13.2443,-5.7236 3.93302,-2.59367 7.12442,-6.05713 9.57029,-10.41 2.44456,-4.35287 3.65835,-9.79526 3.65181,-16.3206l-0.0614738 -52.1926 40.7846 -0.0457784zm-328.249 116.187c0.825318,7.34285 2.39617,14.9604 4.71648,22.8395 2.31246,7.8778 5.98781,15.082 11.026,21.5995 5.03693,6.51622 11.6395,11.9429 19.8011,16.2801 8.16817,4.34633 18.3584,6.50184 30.593,6.48614 10.0529,-0.00653977 23.6543,-2.32816 40.7676,-6.97662l3.28035 13.4549c-8.42583,3.82315 -16.9825,7.35854 -25.6804,10.6363 -8.6992,3.26988 -17.8012,4.63277 -27.3153,4.1109 -14.411,0.0156954 -27.6645,-2.42102 -39.7657,-7.29576 -12.1077,-4.88259 -22.642,-11.7323 -31.6276,-20.5623 -8.98695,-8.8156 -16.1336,-19.3433 -21.4452,-31.5753 -5.31814,-12.232 -8.2558,-25.679 -8.8143,-40.3569 -0.0130795,-13.5949 2.41579,-26.3644 7.28922,-38.34 4.89044,-11.9652 11.735,-22.5099 20.5649,-31.6289 8.82345,-9.11774 19.2086,-16.3978 31.1672,-21.8559 11.9455,-5.45155 24.995,-8.44807 39.134,-9.01572 14.9512,0.255051 28.5461,3.02922 40.7872,8.31466 12.2411,5.28544 22.7126,12.4831 31.4249,21.5695 8.70574,9.10989 15.3776,19.6991 20.0208,31.7846 4.63277,12.0986 6.68756,24.8066 6.15784,38.1216 0,1.36289 -0.0627818,3.33397 -0.196193,5.90933 -0.130795,2.59236 -0.194885,4.69555 -0.194885,6.32265l-151.691 0.177882zm30.6924 -83.4239c-6.11991,3.6845 -11.2759,8.44153 -15.4888,14.2881 -4.21292,5.86355 -7.52858,12.5917 -9.9666,20.2 -2.4341,7.62275 -4.05466,15.5019 -4.86689,23.6543l106.847 -0.126871c-2.21044,-22.2823 -8.06615,-38.4538 -17.5972,-48.4976 -9.52975,-10.0464 -21.7696,-15.0689 -36.7208,-15.0532l-0.809623 0c-8.15901,0.0156954 -15.2913,1.86253 -21.3968,5.53526z"/>
  <path class="fil1" d="M1238.56 72.5195c5.88056,-5.95119 13.0207,-8.91632 21.453,-8.87839 8.42322,0.0392386 15.6196,3.06977 21.5668,9.07196 5.95773,6.01005 8.91632,13.2286 8.88493,21.6545 -0.0209273,4.0782 -0.927339,7.9432 -2.70877,11.6081 -1.78274,3.65965 -4.17368,6.91646 -7.17936,9.75733 -3.01091,2.83433 -6.3475,5.06047 -10.0215,6.68103 -3.68189,1.6114 -7.28661,2.41448 -10.8155,2.39879 -8.43237,-0.0392386 -15.5489,-3.06061 -21.3746,-9.06412 -5.82432,-6.01135 -8.70574,-13.2208 -8.66519,-21.6545 0.0326988,-8.42583 2.98998,-15.6196 8.86008,-21.5747zm234.878 65.0851c16.6934,15.2534 25.5469,36.0197 26.5658,62.307 -1.25171,26.2794 -10.2923,46.9058 -27.1283,61.895 -16.8321,14.9865 -40.1921,22.4183 -70.1011,22.2849 -24.9217,-0.117716 -45.1754,-4.96761 -60.7636,-14.5536l-0.449936 99.908 -39.0803 -0.17265 0.769076 -170.25c1.02151,-26.2807 10.1236,-46.9647 27.2983,-62.0624 17.1695,-15.1003 41.5027,-22.5818 72.9903,-22.4353 29.9064,0.133411 53.2036,7.82548 69.8996,23.0788zm-131.154 72.4698c0.397618,10.4165 2.45895,19.1 6.16569,26.0204 3.70936,6.92954 8.32381,12.5053 13.8591,16.7183 5.53133,4.21946 11.697,7.1872 18.4775,8.92286 6.79089,1.72911 13.5805,2.4995 20.3766,2.29938 7.01586,0.261591 14.1102,-0.499638 21.2569,-2.28369 7.14142,-1.78274 13.5569,-4.92052 19.2335,-9.42903 5.68436,-4.50851 10.2936,-10.5983 13.8499,-18.2891 3.54455,-7.68684 5.34299,-17.193 5.38877,-28.5225l0.056242 -11.8906c0.054934,-11.3308 -1.65848,-20.8501 -5.13241,-28.5683 -3.4857,-7.71692 -8.0413,-13.8591 -13.6812,-18.4134 -5.64251,-4.55691 -12.0279,-7.75485 -19.1537,-9.60168 -7.13096,-1.84552 -14.2096,-2.66168 -21.2255,-2.46811 -7.0224,-0.266822 -14.0566,0.554572 -21.0855,2.44587 -7.03025,1.88999 -13.3934,5.0984 -19.0778,9.59907 -5.67259,4.50851 -10.3014,10.5434 -13.8355,18.1125 -3.55763,7.5822 -5.34822,17.0282 -5.40446,28.3577l-0.0680136 16.9903zm-59.1836 158.699l-46.898 -0.207965 0.926031 -204.714 46.898 0.213196 -0.926031 204.709z"/>
  <polygon class="fil1" points="333.422,228.286 350.877,196.782 279.646,77.6022 140.593,80.5163 123.152,112.01 163.365,134.277 150.766,157.062 278.198,231.196 292.728,205.995 "/>
  <polygon class="fil2" points="140.593,176.452 128.964,195.816 89.2403,174.028 73.7332,201.641 144.953,320.828 283.525,317.923 299.02,290.295 258.81,267.538 268.022,250.571 "/>
  <polygon class="fil3" points="107.159,21.8834 3.96571,201.149 107.159,379.458 314.047,379.458 417.244,200.667 313.56,21.8834 "/>
  <path class="fil4" d="M109.444 25.87l-100.892 175.266 100.894 174.336 202.319 0 100.888 -174.791 -101.379 -174.811 -201.83 0zm-108.92 173.301l103.037 -178.992c0.639589,-1.34719 2.00771,-2.28238 3.59818,-2.28238l206.4 0 0 0.0143875c1.37204,0 2.70485,0.706295 3.44122,1.97893l103.684 178.784 -0.00523181 0.00261591c0.687983,1.18762 0.737686,2.69308 0.00523181,3.96833l-103.009 178.468c-0.630433,1.37335 -2.01817,2.33208 -3.62826,2.33208l-206.888 0 0 -0.0143875c-1.37073,-0.00261591 -2.70616,-0.708911 -3.44122,-1.97893l-103.194 -178.309 0.00915567 -0.00523181c-0.681444,-1.18501 -0.738994,-2.69438 -0.00915567,-3.96571z"/>
  <polygon class="fil3" points="119.274,42.7099 28.1877,200.667 119.274,358.615 301.933,358.615 393.016,200.667 301.448,42.7099 "/>
  <path class="fil0" d="M483.167 360.265c0,2.75717 -0.643513,5.2789 -1.91877,7.55212 -1.63625,2.92066 -3.95917,4.37641 -6.9727,4.37641l-18.5468 0 0 -3.29343 14.4058 0c1.99594,0 3.52886,-0.957422 4.60007,-2.88142 0.817471,-1.47145 1.22424,-3.11424 1.22424,-4.91136 0.00261591,-2.87488 -0.738994,-4.79757 -2.2209,-5.75369 -1.07121,-0.757305 -3.06453,-1.13792 -5.97604,-1.13792 -0.459092,-0.00130795 -1.27656,0 -2.45241,0 -1.17716,0.0392386 -2.09534,0.0614738 -2.76109,0.0614738 -2.96121,0 -5.20958,-1.26087 -6.7425,-3.77606 -1.22686,-1.95539 -1.8416,-4.2587 -1.8416,-6.89161 0,-2.60152 0.614738,-4.93622 1.8416,-7.01586 1.58393,-2.67084 3.831,-4.00888 6.7425,-4.00888l16.7837 0 0 3.35621 -12.6453 0c-1.88738,0 -3.34313,0.816163 -4.36726,2.45241 -0.767769,1.2831 -1.151,2.74147 -1.151,4.3751 0.00261591,1.68203 0.38323,3.13909 1.151,4.3751 1.02413,1.5957 2.47988,2.4014 4.36726,2.4014l8.12631 -0.00261591c2.9115,0 5.10625,1.30141 6.58947,3.89378 1.17716,1.95539 1.76443,4.23515 1.76443,6.82882zm721.933 3.23849c0,2.04041 -0.38323,3.85585 -1.14707,5.45155 -1.07252,2.15551 -2.73885,3.23849 -4.9833,3.23849l-20.1556 0 0 -3.29343 16.1715 0c1.22948,0 2.1712,-0.639589 2.83433,-1.92269 0.4604,-0.95873 0.690599,-2.01686 0.690599,-3.16917 0.00261591,-1.16146 -0.232816,-2.2196 -0.690599,-3.17833 -0.660516,-1.32365 -1.60486,-1.97763 -2.83695,-1.97763l-11.9495 0c-2.35301,0 -4.16714,-1.18108 -5.44501,-3.53409 -1.02805,-1.79974 -1.53161,-3.76167 -1.53161,-5.87925 0,-2.19605 0.534953,-4.04812 1.6114,-5.56665 1.27656,-1.92269 3.19141,-2.88142 5.74453,-2.88142l16.8595 0 0 3.35621 -14.1782 0c-1.07645,0 -1.89392,0.639589 -2.45503,1.91484 -0.404158,0.88156 -0.608198,1.88476 -0.608198,2.99914 0.00261591,1.08037 0.204041,2.07965 0.608198,2.99652 0.56242,1.23863 1.37858,1.86253 2.45241,1.86253l12.8807 -0.00261591c2.14243,0 3.77475,1.23863 4.90482,3.7159 0.817471,1.83767 1.22294,3.79306 1.22294,5.87009zm-39.0019 8.69004l-21.3131 0c-2.70746,0 -4.77272,-1.08299 -6.20624,-3.23849 -1.17323,-1.71342 -1.75789,-3.73028 -1.75789,-6.05059 0,-2.31246 0.583347,-4.37641 1.75789,-6.17485 1.43482,-2.19475 3.49616,-3.29343 6.20624,-3.29343l10.27 0 0 3.29343c-0.714142,0 -1.63363,0 -2.75455,0 -1.12876,-0.0379306 -1.89392,-0.054934 -2.29938,-0.054934 -2.20129,0 -3.68189,0.319141 -4.44573,0.95873 -0.971809,0.793928 -1.45444,2.39879 -1.45444,4.78972 0,1.36027 0.224968,2.63945 0.68406,3.83753 0.67098,1.75789 1.63625,2.63945 2.9115,2.63945l10.8076 0 0 -19.482c0,-1.71342 -0.255051,-2.94943 -0.761229,-3.71328 -0.770384,-1.03721 -2.15028,-1.55777 -4.1436,-1.55777l-9.73117 0 0 -3.29473 12.8781 0c3.87808,0 6.48352,0.820087 7.81764,2.45372 1.02151,1.23732 1.53161,3.48046 1.53161,6.71242l0.00261591 22.175zm-38.8632 0l-15.2468 0c-3.88331,0 -6.51622,-0.956114 -7.89481,-2.87227 -0.973117,-1.40343 -1.45575,-3.73944 -1.45575,-7.01586l0 -11.6264c0,-3.23849 0.482635,-5.55095 1.45575,-6.95177 1.37858,-1.91746 4.01018,-2.87357 7.89481,-2.87357l15.2468 -0.00130795 0 3.29473 -12.0306 0c-2.09534,0 -3.5027,0.738994 -4.21292,2.2196 -0.459092,0.878945 -0.691907,2.29677 -0.691907,4.25085l0 12.2869c0,2.19475 0.334836,3.67535 0.99666,4.43919 0.818779,0.957422 2.55443,1.47145 5.20827,1.55646 1.3812,0.0771692 3.17048,0.10202 5.36522,0.054934 3.06977,-0.0405466 4.85905,-0.054934 5.36522,-0.054934l0 3.29343zm-37.3185 -34.5784l-7.74178 0 0 -5.09448 7.74178 0 0 5.09448zm0 34.5784l-7.74178 0 0 -31.3412 7.74178 0 0 31.3412zm-19.6232 3.35621c0,3.27773 -0.512718,5.61374 -1.53423,7.00801 -1.37727,1.92138 -3.98664,2.88011 -7.81764,2.88011l-11.1882 0 0 -3.35621c1.58262,0.0379306 2.93374,0.0627818 4.06381,0.0627818 3.41899,0 5.66867,-0.302137 6.7425,-0.903796 1.42828,-0.754689 2.14243,-2.47465 2.14243,-5.15334l-0.0797851 -31.9402c-0.650053,0 -1.93839,0 -3.831,0 -1.63363,-0.0405466 -2.9102,-0.0627818 -3.831,-0.0627818 -3.87547,0 -6.22847,0.77954 -7.04464,2.34385 -0.413313,0.71545 -0.584655,2.87488 -0.537569,6.47044l0.0784772 9.70894c0,1.91746 0.232816,3.29343 0.682752,4.13706 0.716758,1.35373 2.1045,2.03125 4.1436,2.03125l6.74381 -0.00261591 0 3.35882 -9.88813 0c-3.87808,0 -6.51099,-0.957422 -7.89742,-2.87488 -1.0189,-1.40082 -1.52507,-3.73551 -1.52507,-7.01455l0 -11.6251c0,-3.23195 0.528413,-5.55226 1.60224,-6.94523 1.39035,-1.92269 3.98664,-2.88142 7.81764,-2.88142l21.1575 0 0 34.7589zm-41.3039 -13.2443c0,3.27642 -0.486559,5.61374 -1.45968,7.01586 -1.37727,1.91354 -4.01018,2.87227 -7.88827,2.87227l-13.4144 0c-3.84015,0 -6.43905,-0.956114 -7.81764,-2.87227 -1.0189,-1.40343 -1.53423,-3.73944 -1.53423,-7.01586l0 -11.6264c0,-3.23849 0.512718,-5.55095 1.53423,-6.95177 1.37858,-1.91746 3.97749,-2.87357 7.81764,-2.87357l13.417 -0.00130795c3.87808,0 6.50838,0.957422 7.88565,2.87488 0.973117,1.40082 1.45706,3.71328 1.45706,6.95177l0.00261591 11.6264zm-7.66461 -11.6879c0,-1.99332 -0.234124,-3.43207 -0.693215,-4.31363 -0.716758,-1.44267 -2.11758,-2.15681 -4.21292,-2.15681l-6.97531 0c-2.09534,0 -3.50531,0.716758 -4.21292,2.15681 -0.410697,0.88156 -0.617354,2.32031 -0.617354,4.31363l0 11.2131c0,1.7108 0.483943,3.25419 1.45575,4.60792 1.13007,1.6441 2.68784,2.46157 4.68116,2.46157l4.36202 0c2.70746,0 4.49936,-0.599043 5.37176,-1.79844 0.561112,-0.803083 0.839706,-2.35955 0.839706,-4.67855l0.00130795 -11.8056zm-1.6114 -15.1605l-13.642 5.15595 -0.146491 -1.62055 13.6393 -5.02908 0.149107 1.49368zm-35.3344 36.7365l-7.73916 0 0 -39.6087 7.73916 0 0 39.6087zm-20.0025 -9.88813c0,3.27642 -0.508794,5.61374 -1.52769,7.01586 -1.38512,1.91354 -3.98664,2.87227 -7.81764,2.87227l-13.4078 0c-3.84015,0 -6.44821,-0.956114 -7.81764,-2.87227 -1.02674,-1.40343 -1.54208,-3.73944 -1.54208,-7.01586l0 -11.6264c0,-3.23849 0.514026,-5.55095 1.54208,-6.95177 1.36943,-1.91746 3.97749,-2.87357 7.81502,-2.87357l13.4104 -0.00130795c3.831,0 6.43251,0.957422 7.81764,2.87488 1.0189,1.40082 1.52507,3.71328 1.52507,6.95177l0.00261591 11.6264zm-7.74047 -11.6879c0,-1.99332 -0.204041,-3.43207 -0.608198,-4.31363 -0.716758,-1.44267 -2.11758,-2.15681 -4.22077,-2.15681l-6.97401 0c-2.0888,0 -3.49877,0.716758 -4.20899,2.15681 -0.465631,0.88156 -0.699755,2.32031 -0.699755,4.31363l0.00130795 11.2131c0,1.7108 0.490482,3.25419 1.46229,4.60792 1.17193,1.6441 2.75847,2.46157 4.75179,2.46157l4.36856 0c2.70354,0 4.46797,-0.599043 5.28675,-1.79844 0.56242,-0.803083 0.841014,-2.35955 0.841014,-4.67855l0 -11.8056zm-39.0869 21.576l-7.58613 0 0 -21.0921c0,-2.15812 -0.177882,-3.66096 -0.531029,-4.49282 -0.668364,-1.64541 -2.10188,-2.46157 -4.29663,-2.46157l-10.652 0 0 28.0464 -7.65937 0 0 -31.3412 21.3785 0c3.8807,0 6.48745,0.820087 7.81764,2.45372 1.02151,1.23732 1.52638,3.48046 1.52638,6.71242l0.00261591 22.175zm-41.9945 0l-15.2534 0c-3.87547,0 -6.50968,-0.956114 -7.89481,-2.87227 -0.965269,-1.40343 -1.44921,-3.73944 -1.44921,-7.01586l0 -11.6264c0,-3.23849 0.483943,-5.55095 1.44921,-6.95177 1.38512,-1.91746 4.01672,-2.87357 7.89481,-2.87357l15.2534 -0.00130795 0 3.29473 -12.0279 0c-2.1045,0 -3.50531,0.738994 -4.22207,2.2196 -0.459092,0.878945 -0.685367,2.29677 -0.685367,4.25085l0 12.2869c0,2.19475 0.328296,3.67535 0.99666,4.43919 0.812239,0.957422 2.55443,1.47145 5.20958,1.55646 1.37989,0.0771692 3.16917,0.10202 5.36392,0.054934 3.06977,-0.0405466 4.84989,-0.054934 5.36522,-0.054934l0 3.29343zm-36.246 -22.1136c0,2.15812 -0.466939,4.05727 -1.38512,5.69352 -1.22294,2.19475 -3.03707,3.29343 -5.43585,3.29343l-10.7291 0 0 -3.29604 6.35404 0c1.4806,0 2.58582,-0.816163 3.30127,-2.45241 0.507486,-1.15885 0.762537,-2.45895 0.762537,-3.90032 0.00261591,-1.15231 -0.17919,-2.21044 -0.536261,-3.17571 -0.457784,-1.39428 -1.19939,-2.09534 -2.2196,-2.09534l-7.58482 0c-2.09926,0 -3.5027,0.716758 -4.21946,2.15681 -0.456476,0.88156 -0.685367,2.29807 -0.685367,4.26l0 11.9194c0,2.319 0.28121,3.87939 0.841014,4.68116 0.863249,1.15231 2.65384,1.73565 5.35738,1.73565 -1.06729,0 3.40329,0 13.4157,0l0 3.29343 -17.932 0c-3.88462,0 -6.50968,-0.956114 -7.89481,-2.87227 -0.965269,-1.40343 -1.45706,-3.73944 -1.45706,-7.01586l0.00130795 -11.6264c0,-3.23849 0.490482,-5.55095 1.45575,-6.95177 1.38512,-1.91746 4.01018,-2.87357 7.89481,-2.87357l13.8748 -0.00130795c2.34647,0 4.15929,1.13923 5.43585,3.41245 0.919491,1.71996 1.38512,3.65965 1.38512,5.81516zm-33.9623 -14.3809l-10.8756 0 0 36.4945 -7.67115 0 0 -36.4945 -9.96006 0 0 -3.29604 28.5068 0 0 3.29604zm-61.6072 27.8045c0,2.04041 -0.388462,3.85585 -1.15231,5.45155 -1.07383,2.15551 -2.73231,3.23849 -4.98461,3.23849l-20.149 0 0 -3.29343 16.165 0c1.22948,0 2.17905,-0.639589 2.83172,-1.92269 0.468247,-0.95873 0.701063,-2.01686 0.701063,-3.16917 0.00261591,-1.16146 -0.232816,-2.2196 -0.701063,-3.17833 -0.652669,-1.32365 -1.60224,-1.97763 -2.83433,-1.97763l-11.9508 0c-2.35039,0 -4.16583,-1.18108 -5.44239,-3.53409 -1.0202,-1.79974 -1.52638,-3.76167 -1.52638,-5.87925 0,-2.19605 0.529721,-4.04812 1.60486,-5.56665 1.27525,-1.92269 3.19141,-2.88142 5.74584,-2.88142l16.8647 0 0 3.35621 -14.1782 0c-1.07514,0 -1.89392,0.639589 -2.45372,1.91484 -0.412005,0.88156 -0.614738,1.88476 -0.614738,2.99914 0,1.08037 0.202733,2.07965 0.614738,2.99652 0.56242,1.23863 1.37858,1.86253 2.45372,1.86253l12.8716 -0.00261591c2.14766,0 3.78129,1.23863 4.90482,3.7159 0.817471,1.83767 1.22948,3.79306 1.22948,5.87009zm-38.705 -13.4235c0,2.15812 -0.4604,4.05727 -1.3812,5.69352 -1.22424,2.19475 -3.03968,3.29343 -5.44239,3.29343l-10.7291 0 0 -3.29604 6.36319 0c1.4806,0 2.57667,-0.816163 3.29212,-2.45241 0.51141,-1.15885 0.766461,-2.45895 0.766461,-3.90032 0.00261591,-1.15231 -0.177882,-2.21044 -0.534953,-3.17571 -0.461707,-1.39428 -1.2007,-2.09534 -2.22483,-2.09534l-7.5822 0c-2.09926,0 -3.50139,0.716758 -4.21815,2.15681 -0.457784,0.88156 -0.689291,2.29807 -0.689291,4.26l0 11.9194c0,2.319 0.28121,3.87939 0.841014,4.68116 0.869789,1.15231 2.66038,1.73565 5.36522,1.73565 -1.07121,0 3.39937,0 13.4118,0l0.00261591 3.29343 -17.9347 0c-3.88201,0 -6.51361,-0.956114 -7.89611,-2.87227 -0.967885,-1.40343 -1.45575,-3.73944 -1.45575,-7.01586l0.00261591 -11.6264c0,-3.23849 0.485251,-5.55095 1.45314,-6.95177 1.38512,-1.91746 4.01149,-2.87357 7.89611,-2.87357l13.8735 -0.00130795c2.34778,0 4.1606,1.13923 5.43978,3.41245 0.922107,1.71996 1.37858,3.65965 1.3812,5.81516zm-40.0809 12.2254c0,3.27642 -0.489175,5.61374 -1.45837,7.01586 -1.37335,1.91354 -4.00888,2.87227 -7.88957,2.87227l-13.4118 0c-3.83623,0 -6.43905,-0.956114 -7.81764,-2.87227 -1.02413,-1.40343 -1.53554,-3.73944 -1.53554,-7.01586l0.00261591 -11.6264c0,-3.23849 0.508794,-5.55095 1.53292,-6.95177 1.37858,-1.91746 3.98141,-2.87357 7.81764,-2.87357l13.4118 -0.00130795c3.88201,0 6.51361,0.957422 7.88957,2.87488 0.969193,1.40082 1.45837,3.71328 1.45837,6.95177l0 11.6264zm-7.28007 -26.9111c-1.07383,1.76051 -2.94028,2.64207 -5.59673,2.64207 -1.68334,0 -3.831,-0.576807 -6.43905,-1.73827 -0.357071,0.359687 -0.689291,0.919491 -0.991429,1.67418l-4.37118 0c1.02282,-1.71342 2.86049,-2.57667 5.51825,-2.57667 1.63756,-0.00130795 3.831,0.583347 6.59078,1.7435 0.355763,-0.366227 0.639589,-0.943034 0.841014,-1.7435l4.44835 -0.00130795zm-0.381922 15.2233c0,-1.99332 -0.2302,-3.43207 -0.694523,-4.31363 -0.71545,-1.44267 -2.11758,-2.15681 -4.21292,-2.15681l-6.97401 0c-2.09534,0 -3.50139,0.716758 -4.21292,2.15681 -0.409389,0.88156 -0.614738,2.32031 -0.614738,4.31363l0 11.2131c0,1.7108 0.485251,3.25419 1.45575,4.60792 1.12484,1.6441 2.68261,2.46157 4.67332,2.46157l4.37118 0c2.71008,0 4.49544,-0.599043 5.36392,-1.79844 0.559804,-0.803083 0.844938,-2.35955 0.844938,-4.67855l0 -11.8056zm-35.3304 21.576l-15.3292 0c-3.831,0 -6.43905,-0.956114 -7.81764,-2.87227 -1.02282,-1.40343 -1.53423,-3.73944 -1.53423,-7.01586l0.00261591 -11.6264c0,-3.23849 0.508794,-5.55095 1.53161,-6.95177 1.37858,-1.91746 3.98664,-2.87357 7.81764,-2.87357l15.3292 -0.00130795 0 3.29473 -12.1077 0c-2.09926,0 -3.50139,0.738994 -4.21815,2.2196 -0.408081,0.878945 -0.614738,2.29677 -0.614738,4.25085l0 12.2869c0,2.19475 0.307369,3.67535 0.922107,4.43919 0.813547,0.957422 2.55443,1.47145 5.20958,1.55646 1.3812,0.0771692 3.16917,0.10202 5.36653,0.054934 3.06846,-0.0405466 4.87736,-0.054934 5.43978,-0.054934l0.00261591 3.29343zm-1.68595 6.77389c0,0.872405 -0.334836,1.62709 -0.99666,2.24445 -0.667056,0.621278 -1.5617,0.932571 -2.68392,0.932571l-8.35521 0 0 -1.44136 6.59339 0c1.58393,0 2.37263,-0.558496 2.37263,-1.68203 0.00261591,-0.79262 -0.561112,-1.30665 -1.68595,-1.52507 -1.12353,-0.21712 -2.22221,-0.427701 -3.29343,-0.630433 -1.12484,-0.436856 -1.68595,-1.33804 -1.68595,-2.69438 0,-0.483943 0.2302,-1.16015 0.689291,-2.0391l0.99666 0c0,1.924 0.689291,3.09854 2.06787,3.5354 1.32888,0.201425 2.6316,0.381922 3.90816,0.544109 1.38512,0.272054 2.07311,1.2007 2.07311,2.75586zm-31.884 -6.83536l-21.4609 0c-3.88201,0 -6.49006,-0.817471 -7.81764,-2.45241 -1.0189,-1.27918 -1.53031,-3.52101 -1.53031,-6.71242l0 -22.1763 7.51158 0 0 21.0397c0,2.15681 0.200117,3.67535 0.609506,4.54775 0.667056,1.60224 2.09534,2.39748 4.29401,2.39748l10.7291 -0.00261591 0 -27.9824 7.66461 0 0 31.3412zm-42.9205 0.0614738l-7.74047 0 0 -39.6087 7.74047 0 0 39.6087zm-20.0025 -9.88813c0,3.27642 -0.512718,5.61374 -1.53423,7.01586 -1.37858,1.91354 -3.98403,2.87227 -7.81764,2.87227l-13.4078 0c-3.83492,0 -6.44036,-0.956114 -7.82025,-2.87227 -1.02282,-1.40343 -1.53161,-3.73944 -1.53161,-7.01586l0 -11.6264c0,-3.23849 0.508794,-5.55095 1.53161,-6.95177 1.37989,-1.91746 3.98272,-2.87357 7.81894,-2.87357l13.4091 -0.00130795c3.83361,0 6.43905,0.957422 7.81764,2.87488 1.02151,1.40082 1.53292,3.71328 1.53292,6.95177l0.00130795 11.6264zm-7.74047 -11.6879c0,-1.99332 -0.205349,-3.43207 -0.614738,-4.31363 -0.716758,-1.44267 -2.11758,-2.15681 -4.21292,-2.15681l-6.97662 0c-2.09403,0 -3.50139,0.716758 -4.21292,2.15681 -0.459092,0.88156 -0.691907,2.32031 -0.691907,4.31363l0 11.2131c0,1.7108 0.485251,3.25419 1.45968,4.60792 1.17323,1.6441 2.75586,2.46157 4.74918,2.46157l4.36856 0c2.70485,0 4.46797,-0.599043 5.28675,-1.79844 0.565036,-0.803083 0.844938,-2.35955 0.844938,-4.67855l0 -11.8056z"/>
  <path class="fil5" d="M130.689 62.6418l-79.5916 138.026 79.5916 138.015 159.828 0 79.5523 -137.95 -80.052 -138.091 -159.328 0zm-119.709 128.138l90.1768 -156.382c3.15086,-6.85498 10.0765,-11.6199 18.1165,-11.6199l182.174 0 0 0.0470863c6.8576,0.00523181 13.5229,3.55763 17.2074,9.91821l91.5685 157.958 -0.0300829 0.0170034c3.42815,5.93026 3.68843,13.4719 0.0300829,19.8377l-90.1468 156.324c-3.1417,6.88114 -10.0856,11.6669 -18.1439,11.6669l-182.66 0 0 -0.0876329c-6.86545,-0.00784772 -13.5412,-3.57725 -17.2074,-9.95614l-90.9708 -157.748c-3.50008,-5.94988 -3.7996,-13.5635 -0.1151,-19.9751z"/>
 </g>
</svg>
